<svg xmlns="http://www.w3.org/2000/svg" xmlns:xlink="http://www.w3.org/1999/xlink" viewBox="0 0 430 430" width="430" height="430" preserveAspectRatio="xMidYMid meet" style="width: 100%; height: 100%; transform: translate3d(0px, 0px, 0px); content-visibility: visible;"><defs><clipPath id="__lottie_element_517"><rect width="430" height="430" x="0" y="0"/></clipPath><clipPath id="__lottie_element_519"><path d="M0,0 L430,0 L430,430 L0,430z"/></clipPath></defs><g clip-path="url(#__lottie_element_517)"><g clip-path="url(#__lottie_element_519)" transform="matrix(1,0,0,1,0,0)" opacity="1" style="display: block;"><g transform="matrix(0.9975433349609375,0.07005220651626587,-0.07005220651626587,0.9975433349609375,22.0477294921875,-50.776824951171875)" opacity="1" style="display: block;"><g opacity="1" transform="matrix(1,0,0,1,0,0)"><g opacity="1" transform="matrix(1,0,0,1,343.02099609375,340.8739929199219)"><path stroke-linecap="round" stroke-linejoin="round" fill-opacity="0" class="primary" stroke="rgb(232,139,47)" stroke-opacity="1" stroke-width="12.04" d=" M-252.1750030517578,-215.69500732421875 C-252.1750030517578,-215.69500732421875 -204.8350067138672,-235.36500549316406 -204.8350067138672,-235.36500549316406 C-204.8350067138672,-235.36500549316406 -121.24500274658203,-4.965000152587891 -121.24500274658203,-4.965000152587891 M66.13500213623047,-23.854999542236328 C66.13500213623047,-23.854999542236328 -66.13500213623047,23.854999542236328 -66.13500213623047,23.854999542236328"/></g><g opacity="1" transform="matrix(1,0,0,1,238.25100708007812,371.72100830078125)"><path stroke-linecap="round" stroke-linejoin="round" fill-opacity="0" class="secondary" stroke="rgb(232,139,47)" stroke-opacity="1" stroke-width="12.04" d=" M-35.7859992980957,13.081000328063965 C-28.56100082397461,32.845001220703125 -6.683000087738037,43.01100158691406 13.081000328063965,35.7859992980957 C32.845001220703125,28.56100082397461 43.01100158691406,6.683000087738037 35.7859992980957,-13.081000328063965 C28.56100082397461,-32.845001220703125 6.683000087738037,-43.01100158691406 -13.081000328063965,-35.7859992980957 C-32.845001220703125,-28.56100082397461 -43.01100158691406,-6.683000087738037 -35.7859992980957,13.081000328063965z"/></g></g><g opacity="1" transform="matrix(1,0,0,1,238.25100708007812,371.72100830078125)"><path stroke-linecap="round" stroke-linejoin="round" fill-opacity="0" class="primary" stroke="rgb(232,139,47)" stroke-opacity="1" stroke-width="14" d=" M0,0 C0,0 0,0 0,0"/></g></g></g></g></svg>